<?xml version="1.0" encoding="UTF-8" standalone="no"?>
<svg
   data-noselect=""
   viewBox="0 0 128 128"
   width="128"
   height="128"
   preserveAspectRatio="none"
   version="1.1"
   class="svg-canvas"
   id="svg57"
   sodipodi:docname="dbet.top.ico.svg"
   inkscape:version="1.1.2 (76b9e6a115, 2022-02-25)"
   inkscape:export-filename="/home/alan/GitClient/todolist/logos/dbet.top.ico.png"
   inkscape:export-xdpi="101.42"
   inkscape:export-ydpi="101.42"
   xmlns:inkscape="http://www.inkscape.org/namespaces/inkscape"
   xmlns:sodipodi="http://sodipodi.sourceforge.net/DTD/sodipodi-0.dtd"
   xmlns="http://www.w3.org/2000/svg"
   xmlns:svg="http://www.w3.org/2000/svg">
  <sodipodi:namedview
     id="namedview59"
     pagecolor="#ffffff"
     bordercolor="#666666"
     borderopacity="1.0"
     inkscape:pageshadow="2"
     inkscape:pageopacity="0.0"
     inkscape:pagecheckerboard="true"
     showgrid="false"
     inkscape:zoom="2"
     inkscape:cx="48.25"
     inkscape:cy="60.25"
     inkscape:window-width="1848"
     inkscape:window-height="1009"
     inkscape:window-x="72"
     inkscape:window-y="34"
     inkscape:window-maximized="1"
     inkscape:current-layer="svg57" />
  <defs
     id="defs2" />
  <g
     id="g847"
     transform="matrix(0.95776737,0,0,0.82859249,8.8856267,-8.0100522)">
    <path
       d="m 50.448867,29.429873 c 0,0 -10.952026,-5.900615 -29.128706,1.788065 0,0 6.902537,3.933743 9.893636,6.913852 1.472541,1.490054 1.380507,2.562893 -0.966355,5.423798 -2.853049,3.516528 -10.675924,14.364123 -9.617535,30.814323 1.380507,21.575987 20.063374,37.251359 48.087674,39.516239 0,0 -26.137607,-9.05953 -36.215311,-25.509728 -10.077703,-16.4502 -3.221183,-35.999713 3.72737,-42.317543 5.890165,-5.364196 5.936182,-7.569476 2.9911,-10.072767 -3.313218,-2.860905 -7.270672,-4.410561 -8.605163,-4.529765 0,0 4.647708,-1.549657 9.341433,-1.132442 4.555675,0.357613 5.798131,1.251646 7.31669,3.337722 0.966355,1.311248 1.242456,3.874141 0.920338,7.331067 0,0 17.302359,-12.933671 26.459725,-17.225028 -0.138051,1.132442 -0.138051,2.384087 0.276101,3.218518 0.828305,1.66886 4.141522,2.264882 5.199911,-1.013237 0,0 -1.702625,-0.119205 -1.978727,-1.668861 -0.09203,-0.596022 0.04602,-1.311248 0.230085,-1.90727 8.605162,-2.7417 22.180147,-4.648969 22.180147,-4.648969 0,0 -5.660076,13.350887 -15.369644,18.953491 -0.09203,-0.119205 -0.138051,-0.119205 -0.138051,-0.119205 -6.120249,-6.079421 -19.281086,-0.357613 -19.281086,-0.357613 10.261771,1.013237 15.599733,7.152261 16.428037,8.165498 v 0.238409 c 0,0 15.415666,-9.297939 21.858034,-29.145463 0.046,-0.0596 -25.63142,-3.933743 -53.609703,13.946909 z"
       fill="#52000f"
       stroke-width="0"
       id="path9" />
    <path
       d="m 10,70.793781 c 0,0 5.06186,22.708428 22.824389,34.926869 11.826346,8.1059 24.987184,10.13237 35.525057,10.13237 0,0 -7.362706,5.78141 -22.272186,2.32449 C 33.330575,115.1974 23.759057,109.05838 16.028216,96.83993 10.368135,87.840002 10,70.793781 10,70.793781 Z"
       fill="#52000f"
       stroke-width="0"
       id="path11" />
  </g>
  <g
     id="shape_O6HVhmTbEF"
     transform="matrix(1.3141047,0,0,1.8631072,32.917701,-65.179396)"
     filter="">
    <g
       id="g29">
      <svg
         version="1.1"
         width="112.88"
         height="135.96288"
         viewBox="0 0 112.88 135.96288"
         id="svg27">
        <g
           data-width="37.55232"
           transform="translate(18.72)"
           id="g25">
          <path
             d="m 0.41,-11.31 v -1.79 h 11.03 v 1.79 H 6.96 V 0 H 4.9 v -11.31 z"
             transform="translate(0,73.98144)"
             fill="#52000f"
             stroke="#52000f"
             stroke-width="0.031"
             data-glyph-w="11.84976"
             data-glyph-h="22.33296"
             data-glyph-ascender="17.82144"
             data-glyph-descender="-4.51152"
             id="path19" />
          <path
             d="m 1.09,-5.84 v -1.44 q 0,-1.37 0.43,-2.48 0.43,-1.12 1.2,-1.91 0.78,-0.8 1.87,-1.23 1.08,-0.43 2.39,-0.43 v 0 q 1.31,0 2.4,0.43 1.08,0.43 1.86,1.23 0.78,0.79 1.21,1.91 0.43,1.11 0.43,2.48 v 0 1.44 q 0,1.37 -0.43,2.49 -0.43,1.12 -1.21,1.92 -0.78,0.79 -1.86,1.22 -1.09,0.43 -2.4,0.43 v 0 Q 5.67,0.22 4.59,-0.21 3.5,-0.64 2.72,-1.43 1.95,-2.23 1.52,-3.35 1.09,-4.47 1.09,-5.84 Z m 2.07,-1.35 v 1.26 q 0,1.03 0.28,1.82 0.29,0.8 0.79,1.35 0.51,0.55 1.21,0.83 0.7,0.28 1.54,0.28 v 0 q 0.84,0 1.55,-0.28 0.7,-0.28 1.2,-0.83 0.51,-0.55 0.79,-1.35 0.28,-0.79 0.28,-1.82 v 0 -1.26 q 0,-1.01 -0.27,-1.8 -0.27,-0.8 -0.78,-1.35 -0.5,-0.56 -1.2,-0.84 -0.71,-0.28 -1.57,-0.28 v 0 q -0.86,0 -1.56,0.28 -0.7,0.28 -1.21,0.84 -0.5,0.55 -0.77,1.35 -0.28,0.79 -0.28,1.8 z"
             transform="translate(11.84976,73.98144)"
             fill="#52000f"
             stroke="#52000f"
             stroke-width="0.031"
             data-glyph-w="13.96512"
             data-glyph-h="22.33296"
             data-glyph-ascender="17.82144"
             data-glyph-descender="-4.51152"
             id="path21" />
          <path
             d="m 1.59,0 v -13.1 h 5.43 q 0.86,0 1.6,0.3 0.74,0.31 1.29,0.86 0.55,0.54 0.86,1.27 0.31,0.73 0.31,1.57 v 0 q 0,0.84 -0.31,1.57 -0.31,0.73 -0.86,1.27 -0.55,0.53 -1.29,0.84 -0.74,0.31 -1.6,0.31 v 0 H 3.65 V 0 Z m 5.26,-11.31 h -3.2 v 4.48 h 3.2 q 0.49,0 0.89,-0.17 0.4,-0.17 0.68,-0.47 0.28,-0.3 0.44,-0.71 0.16,-0.41 0.16,-0.88 v 0 q 0,-0.96 -0.6,-1.6 -0.6,-0.65 -1.57,-0.65 z"
             transform="translate(25.81488,73.98144)"
             fill="#52000f"
             stroke="#52000f"
             stroke-width="0.031"
             data-glyph-w="11.73744"
             data-glyph-h="22.33296"
             data-glyph-ascender="17.82144"
             data-glyph-descender="-4.51152"
             id="path23" />
        </g>
      </svg>
    </g>
  </g>
  <g
     id="shape_KFXi7xvDcx"
     transform="matrix(0.58205625,0,0,0.52936372,-37.162971,-17.611295)"
     filter="">
    <g
       id="g44">
      <svg
         version="1.1"
         width="479.20001"
         height="478.29999"
         viewBox="0 0 479.2 478.3"
         id="svg42">
        <g
           data-width="212.96"
           transform="translate(66.55)"
           id="g40">
          <path
             d="m 37.93,-45.85 8.99,4.06 q 1.26,0.53 2.03,1.76 0.76,1.23 0.76,2.63 v 0 35 q 0,1.4 -0.76,2.67 -0.77,1.26 -2.03,1.79 v 0 l -8.99,4 Q 36.6,6.65 35.27,6.65 v 0 H 8.52 Q 6.79,6.65 5.59,5.46 4.39,4.26 4.39,2.53 v 0 -44.86 q 0,-1.66 1.2,-2.89 1.2,-1.23 2.93,-1.23 v 0 h 26.75 q 1.33,0 2.66,0.6 z m 1.4,45.05 v -38.13 q 0,-1.67 -1.33,-2.26 v 0 l -2.73,-1.27 q -0.26,-0.13 -0.5,-0.2 -0.23,-0.07 -0.56,-0.07 v 0 H 16.3 q -0.66,0 -1.09,0.44 -0.44,0.43 -0.44,1.1 v 0 42.59 q 0,0.66 0.44,1.1 0.43,0.43 1.09,0.43 v 0 h 17.91 q 0.33,0 0.56,-0.07 0.24,-0.06 0.5,-0.2 v 0 L 38,1.4 q 0.67,-0.34 1,-0.9 0.33,-0.57 0.33,-1.3 z"
             transform="translate(0,260.65)"
             fill="#52000f"
             stroke="#52000f"
             stroke-width="0.111"
             data-glyph-w="53.24"
             data-glyph-h="69.67785"
             data-glyph-ascender="57.16645"
             data-glyph-descender="-12.5114"
             id="path32" />
          <path
             d="m 43.32,-22.89 h 2.2 q 1.73,0 2.93,1.19 1.2,1.2 1.2,2.93 v 0 21.37 q 0,1.66 -1.2,2.86 -1.2,1.19 -2.93,1.19 v 0 H 10.51 Q 8.78,6.65 7.59,5.46 6.39,4.26 6.39,2.6 v 0 -45.06 q 0,-1.73 1.2,-2.93 1.19,-1.2 2.92,-1.2 v 0 h 32.75 q 1.66,0 2.73,1.3 1.06,1.3 0.79,2.96 v 0 z M 35.14,-42.86 H 18.37 q -0.67,0 -1.07,0.47 -0.4,0.46 -0.4,1.06 v 0 18.44 h 16.31 l 3.13,-18.5 q 0.13,-0.54 -0.24,-1 -0.36,-0.47 -0.96,-0.47 z M 39.46,1.4 v -19.1 q 0,-0.6 -0.4,-1.03 -0.39,-0.44 -1.06,-0.44 v 0 H 16.9 V 1.4 q 0,0.6 0.4,1.06 0.4,0.47 1.07,0.47 v 0 H 38 q 0.67,0 1.06,-0.47 0.4,-0.46 0.4,-1.06 z"
             transform="translate(53.24,260.65)"
             fill="#52000f"
             stroke="#52000f"
             stroke-width="0.111"
             data-glyph-w="53.24"
             data-glyph-h="69.67785"
             data-glyph-ascender="57.16645"
             data-glyph-descender="-12.5114"
             id="path34" />
          <path
             d="m 16.57,-42.86 v 0 q -0.66,0 -1.06,0.47 -0.4,0.46 -0.4,1.13 v 0 19.37 h 30.94 v 3.72 H 15.11 V 1.4 q 0,0.66 0.4,1.1 0.4,0.43 1.06,0.43 v 0 h 31.15 l -2,3.72 H 8.85 Q 7.12,6.65 5.92,5.46 4.73,4.26 4.73,2.53 v 0 -45.12 q 0,-1.67 1.19,-2.83 1.2,-1.17 2.93,-1.17 v 0 h 38.87 v 3.73 z"
             transform="translate(106.48,260.65)"
             fill="#52000f"
             stroke="#52000f"
             stroke-width="0.111"
             data-glyph-w="53.24"
             data-glyph-h="69.67785"
             data-glyph-ascender="57.16645"
             data-glyph-descender="-12.5114"
             id="path36" />
          <path
             d="m 50.98,-46.59 v 3.73 H 31.74 V 6.65 H 21.23 V -42.86 H 2 v -3.66 z"
             transform="translate(159.72,260.65)"
             fill="#52000f"
             stroke="#52000f"
             stroke-width="0.111"
             data-glyph-w="53.24"
             data-glyph-h="69.67785"
             data-glyph-ascender="57.16645"
             data-glyph-descender="-12.5114"
             id="path38" />
        </g>
      </svg>
    </g>
  </g>
  <defs
     id="defs53">
    <pattern
       id="wm_tile"
       x="0"
       y="0"
       width="20%"
       height="27%"
       patternunits="objectBoundingBox">
      <g
         id="wm_lm"
         transform="translate(-188.000000, -323.000000)"
         fill="#cccccc">
        <text
           font-size="15"
           transform="translate(270.490979, 373.245789) rotate(-390.000000) translate(-270.490979, -373.245789)"
           id="text49"><tspan
             x="187.490979"
             opacity=".3"
             y="378.245789"
             id="tspan47">copyright © copyright © </tspan></text>
      </g>
    </pattern>
  </defs>
</svg>
