<?xml version="1.0" standalone="no"?>
<!DOCTYPE svg PUBLIC "-//W3C//DTD SVG 20010904//EN"
 "http://www.w3.org/TR/2001/REC-SVG-20010904/DTD/svg10.dtd">
<svg version="1.0" xmlns="http://www.w3.org/2000/svg"
 width="700.000000pt" height="700.000000pt" viewBox="0 0 700.000000 700.000000"
 preserveAspectRatio="xMidYMid meet">
<metadata>
Created by potrace 1.14, written by Peter Selinger 2001-2017
</metadata>
<g transform="translate(0.000000,700.000000) scale(0.100000,-0.100000)"
fill="#000000" stroke="none">
<path d="M5497 6754 c-1 -1 -67 -4 -147 -8 -80 -3 -154 -8 -165 -10 -11 -2
-55 -7 -98 -11 -43 -3 -86 -8 -95 -10 -9 -1 -53 -8 -97 -15 -124 -18 -131 -19
-288 -51 -435 -88 -844 -229 -1265 -436 -119 -58 -221 -103 -230 -100 -210 65
-362 88 -577 89 -70 0 -239 -10 -274 -17 -10 -2 -42 -6 -72 -10 -30 -3 -61 -8
-69 -10 -8 -2 -30 -7 -48 -10 -140 -24 -470 -122 -455 -135 4 -4 44 -27 88
-50 177 -95 356 -207 416 -261 75 -68 64 -117 -55 -249 -93 -104 -111 -126
-184 -233 -168 -248 -274 -531 -310 -827 -10 -77 -8 -375 2 -420 3 -13 8 -41
11 -62 41 -276 207 -594 427 -819 144 -147 216 -206 393 -322 337 -220 853
-399 1332 -461 15 -2 48 -7 73 -10 93 -13 117 -16 190 -21 l75 -6 -100 35
c-230 79 -492 189 -720 303 -197 99 -281 147 -452 260 -504 330 -760 666 -854
1117 -23 109 -30 320 -16 451 17 159 74 348 153 510 86 179 166 283 314 408
188 160 248 241 236 315 -3 20 -14 48 -24 62 -62 84 -342 238 -482 265 -41 8
-32 12 57 28 164 30 201 34 325 31 288 -6 405 -55 475 -203 23 -49 26 -68 27
-166 l1 -111 147 92 c441 278 884 527 1150 647 77 35 91 37 81 11 -10 -28 8
-104 33 -134 52 -62 153 -61 216 2 21 21 38 42 38 47 0 5 -13 14 -29 19 -47
17 -71 47 -71 90 0 21 6 45 13 54 20 27 413 111 762 164 17 3 55 9 85 14 30 5
78 12 105 15 28 4 77 11 110 16 103 16 101 17 65 -48 -174 -312 -443 -604
-696 -756 -34 -20 -65 -37 -68 -37 -4 0 -37 18 -74 40 -104 63 -222 89 -390
85 -156 -3 -267 -22 -462 -77 -89 -25 -108 -38 -56 -38 57 0 224 -36 328 -71
166 -56 337 -152 438 -247 30 -28 58 -52 61 -52 4 0 58 34 120 76 304 202 579
476 773 769 96 144 250 454 234 470 -9 10 -420 27 -431 19z"/>
<path d="M4398 4370 c-169 -52 -264 -188 -314 -450 -13 -68 -11 -370 2 -455
18 -109 62 -236 99 -283 52 -69 106 -116 163 -144 58 -29 74 -32 151 -32 77 0
93 3 154 34 140 69 238 236 263 449 10 82 11 315 1 396 -17 151 -68 284 -143
372 -38 45 -118 101 -153 108 -12 2 -26 7 -32 11 -23 14 -138 10 -191 -6z
m165 -184 c9 10 103 -63 129 -101 59 -85 72 -150 74 -371 2 -116 -1 -218 -7
-239 -6 -21 -12 -45 -14 -54 -1 -9 -15 -42 -30 -73 -95 -200 -336 -200 -431
-1 -49 102 -58 164 -57 363 1 139 3 160 22 243 21 91 82 182 144 214 39 20
116 32 143 22 12 -4 24 -6 27 -3z"/>
<path d="M3179 4360 c-8 -26 -3 -180 5 -183 6 -2 79 -2 161 -2 l150 1 0 -573
c0 -315 2 -574 5 -574 15 -4 127 -5 136 -2 8 3 11 165 12 556 0 304 1 561 1
573 1 19 6 20 152 19 83 0 155 2 160 6 6 3 9 45 7 95 l-3 89 -393 0 c-215 0
-393 -2 -393 -5z"/>
<path d="M5121 4360 c-9 -6 -11 -1329 -2 -1331 3 -1 38 -2 76 -3 l70 -2 0 253
c0 140 2 257 5 261 3 4 68 8 146 8 124 1 147 4 186 23 87 42 157 144 182 264
12 55 14 198 3 237 -2 8 -7 29 -12 45 -27 103 -121 215 -199 236 -41 12 -440
19 -455 9z m440 -203 c14 -10 39 -41 55 -70 24 -45 28 -63 28 -132 0 -68 -4
-90 -28 -138 -39 -80 -61 -90 -211 -92 -66 -1 -125 0 -130 2 -7 2 -10 83 -9
226 1 122 2 222 3 223 0 1 61 0 134 -1 105 -1 137 -5 158 -18z"/>
<path d="M1015 4140 c27 -413 135 -820 278 -1042 40 -63 37 -59 140 -183 359
-432 801 -687 1417 -821 63 -14 134 -27 156 -30 23 -3 51 -6 62 -9 96 -18 376
-25 497 -12 111 12 238 38 313 63 69 23 185 75 180 79 -2 2 -82 5 -178 9 -96
4 -188 8 -205 10 -16 2 -59 7 -95 11 -99 10 -143 15 -166 20 -12 3 -39 7 -60
10 -61 9 -143 25 -209 40 -33 8 -72 16 -87 19 -31 5 -33 6 -238 71 -486 155
-890 410 -1195 756 -79 89 -94 108 -162 200 -185 253 -318 505 -425 804 l-28
80 5 -75z"/>
<path d="M325 1762 c-35 -7 -83 -51 -93 -84 -6 -20 -9 -290 -8 -703 2 -745 -3
-700 71 -734 37 -18 70 -19 490 -18 449 0 482 2 560 37 22 10 87 37 145 60
120 47 130 53 159 100 21 35 21 42 21 571 0 455 -2 540 -15 566 -20 39 -42 59
-90 78 -41 16 -54 22 -115 48 -84 36 -161 66 -192 73 -32 8 -894 13 -933 6z
m931 -138 c52 -22 66 -32 72 -56 4 -16 7 -282 7 -592 0 -636 8 -579 -87 -617
-50 -21 -69 -22 -355 -23 -225 -1 -306 2 -319 11 -15 11 -17 63 -16 648 0 350
3 639 7 643 12 13 118 17 373 15 252 -1 254 -2 318 -29z"/>
<path d="M2070 1761 c-36 -15 -69 -44 -78 -70 -12 -34 -13 -1357 -1 -1389 5
-13 16 -30 24 -38 40 -41 57 -42 670 -40 546 1 593 2 618 19 62 40 61 37 61
411 0 308 -2 344 -18 368 -23 35 -74 58 -131 58 l-47 0 5 48 c4 26 9 58 12 72
12 60 16 77 22 110 3 19 7 42 8 50 1 8 5 22 8 30 4 8 9 33 12 55 3 22 13 81
22 132 20 108 14 136 -35 169 -32 22 -33 22 -584 22 -304 -1 -560 -3 -568 -7z
m855 -113 c10 -9 9 -39 -3 -103 -6 -33 -14 -73 -17 -90 -2 -16 -7 -41 -10 -55
-3 -14 -7 -41 -10 -60 -3 -19 -15 -84 -28 -145 l-22 -110 -257 -1 -258 -1 0
270 c0 223 3 273 15 287 12 14 49 16 299 15 157 0 288 -3 291 -7z m97 -691
c10 -11 13 -76 12 -307 0 -253 -2 -294 -16 -304 -11 -8 -114 -11 -347 -11
-281 0 -333 3 -341 15 -6 9 -10 148 -10 318 l0 302 344 0 c272 0 347 -3 358
-13z"/>
<path d="M3693 1753 c-15 -7 -37 -26 -48 -41 -20 -26 -20 -43 -20 -710 -1
-758 -4 -726 66 -760 36 -18 67 -19 640 -18 l603 1 27 45 c15 25 28 50 28 55
1 7 -173 10 -504 10 -363 0 -507 3 -516 12 -12 12 -18 577 -6 589 3 3 224 6
491 6 362 0 485 2 488 11 4 10 3 80 -1 97 -1 3 -221 5 -491 4 -269 0 -490 2
-491 5 -1 8 -1 520 0 548 2 49 -6 48 533 48 l505 0 -1 56 0 57 -637 0 c-528
-1 -642 -3 -666 -15z"/>
<path d="M5231 1714 c-1 -35 2 -53 11 -56 7 -2 145 -4 306 -4 253 1 292 -1
293 -14 1 -8 2 -330 3 -715 l1 -700 168 -1 c117 -1 167 2 168 10 0 6 1 328 2
716 l2 705 295 1 c162 1 300 2 307 3 10 1 12 47 4 102 -1 4 -351 6 -779 6
l-779 -1 -2 -52z"/>
</g>
</svg>
